<svg xmlns="http://www.w3.org/2000/svg" viewBox="0 0 180 220" width="180" height="220" role="img"><filter id="g4" x="0" y="0" width="100%" height="100%"><feTurbulence type="fractalNoise" baseFrequency="0.9" numOctaves="3" seed="4"/><feColorMatrix type="saturate" values="0"/><feComponentTransfer><feFuncA type="linear" slope="0.30"/></feComponentTransfer></filter><rect width="180" height="220" fill="#9a8f7d"/><polygon points="0,-5 180,5 175,52 5,47" fill="#c3b49c" opacity="0.95" stroke="#1d1a18" stroke-width="1.15" stroke-linejoin="round"/><polygon points="0,44 96,44 96,108 0,108" fill="#b08d52" opacity="0.95" stroke="#1d1a18" stroke-width="1.15" stroke-linejoin="round"/><polygon points="84,43 180,33 185,104 79,109" fill="#7d8288" opacity="0.95" stroke="#1d1a18" stroke-width="1.15" stroke-linejoin="round"/><polygon points="0,95 74,105 69,168 5,163" fill="#8d7554" opacity="0.95" stroke="#1d1a18" stroke-width="1.15" stroke-linejoin="round"/><polygon points="66,96 144,96 144,180 66,180" fill="#7d6338" opacity="0.95" stroke="#1d1a18" stroke-width="1.15" stroke-linejoin="round"/><polygon points="132,99 180,89 185,176 127,181" fill="#c3b49c" opacity="0.95" stroke="#1d1a18" stroke-width="1.15" stroke-linejoin="round"/><polygon points="0,155 88,165 83,220 5,215" fill="#6d5740" opacity="0.95" stroke="#1d1a18" stroke-width="1.15" stroke-linejoin="round"/><polygon points="80,172 180,172 180,220 80,220" fill="#b08d52" opacity="0.95" stroke="#1d1a18" stroke-width="1.15" stroke-linejoin="round"/><polygon points="40,65 120,55 125,132 35,137" fill="#e6dabf" opacity="0.95" stroke="#1d1a18" stroke-width="1.15" stroke-linejoin="round"/><polygon points="24,74 52,66 58,128 30,136" fill="#45372a" opacity="0.62" stroke="#1d1a18" stroke-width="1.1" stroke-linejoin="round"/><polygon points="50,96 78,88 84,148 56,156" fill="#e6dabf" opacity="0.62" stroke="#1d1a18" stroke-width="1.1" stroke-linejoin="round"/><polygon points="76,118 104,110 110,168 82,176" fill="#45372a" opacity="0.62" stroke="#1d1a18" stroke-width="1.1" stroke-linejoin="round"/><polygon points="102,74 130,66 136,128 108,136" fill="#e6dabf" opacity="0.62" stroke="#1d1a18" stroke-width="1.1" stroke-linejoin="round"/><polygon points="128,96 156,88 162,148 134,156" fill="#45372a" opacity="0.62" stroke="#1d1a18" stroke-width="1.1" stroke-linejoin="round"/><polygon points="154,118 182,110 188,168 160,176" fill="#e6dabf" opacity="0.62" stroke="#1d1a18" stroke-width="1.1" stroke-linejoin="round"/><path d="M 20 40 L 44 96" fill="none" stroke="#1d1a18" stroke-width="1.5" stroke-linecap="round"/><path d="M 50 54 L 74 106" fill="none" stroke="#1d1a18" stroke-width="1.5" stroke-linecap="round"/><path d="M 80 40 L 104 96" fill="none" stroke="#1d1a18" stroke-width="1.5" stroke-linecap="round"/><path d="M 110 54 L 134 106" fill="none" stroke="#1d1a18" stroke-width="1.5" stroke-linecap="round"/><path d="M 140 40 L 164 96" fill="none" stroke="#1d1a18" stroke-width="1.5" stroke-linecap="round"/><path d="M 170 54 L 194 106" fill="none" stroke="#1d1a18" stroke-width="1.5" stroke-linecap="round"/><path d="M 8 150 L 40 196" fill="none" stroke="#1d1a18" stroke-width="1.4" stroke-linecap="round"/><path d="M 42 166 L 74 204" fill="none" stroke="#1d1a18" stroke-width="1.4" stroke-linecap="round"/><path d="M 76 150 L 108 196" fill="none" stroke="#1d1a18" stroke-width="1.4" stroke-linecap="round"/><path d="M 110 166 L 142 204" fill="none" stroke="#1d1a18" stroke-width="1.4" stroke-linecap="round"/><path d="M 144 150 L 176 196" fill="none" stroke="#1d1a18" stroke-width="1.4" stroke-linecap="round"/><path d="M 96 214 L 104 120 L 88 64" fill="none" stroke="#45372a" stroke-width="3.0" stroke-linecap="round"/><path d="M 100 86 L 126 70" fill="none" stroke="#7d7f57" stroke-width="1.6" stroke-linecap="round"/><path d="M 100 102 L 118 86" fill="none" stroke="#7d7f57" stroke-width="1.6" stroke-linecap="round"/><path d="M 100 118 L 110 102" fill="none" stroke="#7d7f57" stroke-width="1.6" stroke-linecap="round"/><rect width="180" height="220" filter="url(#g4)" opacity=".6" style="mix-blend-mode:overlay"/><radialGradient id="v4" cx="50%" cy="42%" r="72%"><stop offset=".45" stop-color="#000" stop-opacity="0"/><stop offset="1" stop-color="#0b0810" stop-opacity=".6"/></radialGradient><rect width="180" height="220" fill="url(#v4)"/></svg>