<svg xmlns="http://www.w3.org/2000/svg" viewBox="0 0 170 215" width="170" height="215" role="img"><filter id="g5" x="0" y="0" width="100%" height="100%"><feTurbulence type="fractalNoise" baseFrequency="0.9" numOctaves="3" seed="5"/><feColorMatrix type="saturate" values="0"/><feComponentTransfer><feFuncA type="linear" slope="0.30"/></feComponentTransfer></filter>
<rect width="170" height="215" fill="#6d5740"/>
<polygon points="0,0 170,0 170,80 0,96" fill="#9a8f7d" opacity="0.7" stroke="#1d1a18" stroke-width="1.15" stroke-linejoin="round"/>
<polygon points="0,96 170,80 170,215 0,215" fill="#45372a" opacity="0.55" stroke="#1d1a18" stroke-width="1.15" stroke-linejoin="round"/>
<!-- head, broken into planes seen from two sides at once -->
<polygon points="58,26 96,20 104,58 62,64" fill="#c3b49c" opacity="0.95" stroke="#1d1a18" stroke-width="1.15" stroke-linejoin="round"/>
<polygon points="96,20 118,34 116,70 104,58" fill="#cbab72" opacity="0.92" stroke="#1d1a18" stroke-width="1.15" stroke-linejoin="round"/>
<polygon points="62,64 104,58 100,88 66,90" fill="#b08d52" opacity="0.9" stroke="#1d1a18" stroke-width="1.15" stroke-linejoin="round"/>
<path d="M 70 40 L 86 38" fill="none" stroke="#1d1a18" stroke-width="1.5" stroke-linecap="round"/>
<circle cx="76" cy="44" r="3" fill="#1d1a18"/>
<polygon points="96,38 108,36 107,48 95,50" fill="#e6dabf" opacity="0.95" stroke="#1d1a18" stroke-width="0.8" stroke-linejoin="round"/>
<circle cx="101" cy="43" r="2.4" fill="#1d1a18"/>
<path d="M 88 56 L 92 72 L 82 74" fill="none" stroke="#1d1a18" stroke-width="1.3" stroke-linecap="round"/>
<path d="M 74 80 L 94 77" fill="none" stroke="#1d1a18" stroke-width="1.4" stroke-linecap="round"/>
<!-- shoulders and arms as planes -->
<polygon points="38,88 104,80 122,140 46,152" fill="#5f6670" opacity="0.9" stroke="#1d1a18" stroke-width="1.15" stroke-linejoin="round"/>
<polygon points="104,80 140,100 136,152 122,140" fill="#7d8288" opacity="0.88" stroke="#1d1a18" stroke-width="1.15" stroke-linejoin="round"/>
<polygon points="46,152 122,140 132,215 34,215" fill="#45372a" opacity="0.92" stroke="#1d1a18" stroke-width="1.15" stroke-linejoin="round"/>
<!-- the book -->
<polygon points="48,124 92,116 96,150 52,158" fill="#e6dabf" opacity="0.95" stroke="#1d1a18" stroke-width="1.15" stroke-linejoin="round"/>
<polygon points="92,116 126,122 128,152 96,150" fill="#c3b49c" opacity="0.95" stroke="#1d1a18" stroke-width="1.15" stroke-linejoin="round"/>
<path d="M 94 118 L 97 150" fill="none" stroke="#1d1a18" stroke-width="1.2" stroke-linecap="round"/>
<path d="M 56 130 L 86 126" fill="none" stroke="#5f6670" stroke-width="0.9" stroke-linecap="round"/><path d="M 56 137 L 86 133" fill="none" stroke="#5f6670" stroke-width="0.9" stroke-linecap="round"/><path d="M 56 144 L 86 140" fill="none" stroke="#5f6670" stroke-width="0.9" stroke-linecap="round"/><path d="M 102 130 L 122 132" fill="none" stroke="#5f6670" stroke-width="0.9" stroke-linecap="round"/><path d="M 102 137 L 122 139" fill="none" stroke="#5f6670" stroke-width="0.9" stroke-linecap="round"/><path d="M 102 144 L 122 146" fill="none" stroke="#5f6670" stroke-width="0.9" stroke-linecap="round"/>
<polygon points="4,168 30,164 34,206 8,210" fill="#c98d7e" opacity="0.55" stroke="#1d1a18" stroke-width="1.15" stroke-linejoin="round"/>
<rect width="170" height="215" filter="url(#g5)" opacity=".6" style="mix-blend-mode:overlay"/><radialGradient id="v5" cx="50%" cy="42%" r="72%"><stop offset=".45" stop-color="#000" stop-opacity="0"/><stop offset="1" stop-color="#0b0810" stop-opacity=".6"/></radialGradient><rect width="170" height="215" fill="url(#v5)"/></svg>